<?xml version="1.0" standalone="no"?><!DOCTYPE svg PUBLIC "-//W3C//DTD SVG 1.1//EN" "http://www.w3.org/Graphics/SVG/1.1/DTD/svg11.dtd"><svg t="1670489441225" class="icon" viewBox="0 0 1024 1024" version="1.1" xmlns="http://www.w3.org/2000/svg" p-id="71645" xmlns:xlink="http://www.w3.org/1999/xlink" width="200" height="200"><path d="M752.425722 943.663365H261.713295a130.856647 130.856647 0 0 1-130.856648-130.856647V234.607275a130.856647 130.856647 0 0 1 130.856648-130.856647h245.402948a37.387614 37.387614 0 0 1 0 74.775227H261.713295a56.08142 56.08142 0 0 0-56.081421 56.08142v578.199443a56.08142 56.08142 0 0 0 56.081421 56.08142h490.712427a56.08142 56.08142 0 0 0 56.081421-56.08142V473.420656a37.387614 37.387614 0 1 1 74.775227 0v339.386062a130.856647 130.856647 0 0 1-130.856648 130.856647z" p-id="71646"></path><path d="M514.079686 410.562731H308.821688a37.387614 37.387614 0 0 1 0-74.775227H514.079686a37.387614 37.387614 0 1 1 0 74.775227zM662.041167 589.555931H308.821688a37.387614 37.387614 0 0 1 0-74.775227h353.219479a37.387614 37.387614 0 0 1 0 74.775227zM436.780795 751.818174H308.821688a37.387614 37.387614 0 1 1 0-74.775228h127.959107a37.387614 37.387614 0 0 1 0 74.775228zM660.078317 386.868331a37.387614 37.387614 0 0 1-26.451737-63.83935L838.884579 117.770983a37.387614 37.387614 0 0 1 52.856738 52.903473L686.530053 375.88572a37.387614 37.387614 0 0 1-26.451736 10.982611z" p-id="71647"></path></svg>