<?xml version="1.0" standalone="no"?><!DOCTYPE svg PUBLIC "-//W3C//DTD SVG 1.1//EN" "http://www.w3.org/Graphics/SVG/1.1/DTD/svg11.dtd"><svg t="1670486741187" class="icon" viewBox="0 0 1024 1024" version="1.1" xmlns="http://www.w3.org/2000/svg" p-id="34441" xmlns:xlink="http://www.w3.org/1999/xlink" width="200" height="200"><path d="M726.698667 170.666667c45.397333 0 95.573333 31.744 116.053333 73.045333l83.285333 169.642667c20.821333 42.325333 12.970667 102.058667-18.090666 137.216l-332.117334 376.149333c-34.816 39.594667-92.842667 39.594667-127.658666 0L116.053333 550.570667c-31.061333-35.157333-38.912-94.890667-18.090666-137.216l83.285333-169.642667C201.386667 202.410667 251.562667 170.666667 296.96 170.666667h429.738667z" p-id="34442"></path><path d="M529.408 308.565333c-15.701333-8.874667-35.84-3.072-44.714667 12.629334l-46.08 82.261333c-5.12 8.874667-13.994667 15.018667-24.234666 16.384l-94.549334 12.288c-18.090667 2.389333-30.72 18.773333-28.330666 36.522667 1.024 7.509333 4.778667 14.677333 10.24 19.797333l63.488 58.709333c8.192 7.509333 11.946667 19.114667 9.898666 30.378667l-16.042666 83.968c-3.413333 17.749333 8.192 34.816 25.941333 38.229333 6.826667 1.365333 13.653333 0.341333 19.797333-2.389333l90.794667-41.984c8.874667-4.096 19.114667-4.096 27.989333 0.341333l89.770667 43.690667c16.384 7.850667 35.84 1.024 43.690667-15.018667 3.072-6.144 4.096-12.970667 2.730666-19.797333l-14.336-84.309333c-2.048-11.264 2.048-22.528 10.581334-30.037334l64.853333-57.685333c13.653333-11.946667 14.677333-32.768 2.730667-46.08-5.12-5.802667-11.946667-9.557333-19.797334-10.581333l-94.208-13.994667c-10.24-1.365333-19.114667-7.850667-24.234666-17.066667l-44.032-82.602666c-2.048-5.802667-6.485333-10.581333-11.946667-13.653334z" fill="#FFFFFF" p-id="34443"></path></svg>