<?xml version="1.0" standalone="no"?><!DOCTYPE svg PUBLIC "-//W3C//DTD SVG 1.1//EN" "http://www.w3.org/Graphics/SVG/1.1/DTD/svg11.dtd"><svg t="1670489004379" class="icon" viewBox="0 0 1024 1024" version="1.1" xmlns="http://www.w3.org/2000/svg" p-id="69091" xmlns:xlink="http://www.w3.org/1999/xlink" width="200" height="200"><path d="M716.8 976C587.2 976 480 868.8 480 739.2c0-129.6 107.2-236.8 236.8-236.8 129.6 0 236.8 107.2 236.8 236.8C955.2 868.8 848 976 716.8 976z" p-id="69092"></path><path d="M712 912h-480C148.8 912 80 843.2 80 760v-336c0-6.4 3.2-12.8 8-17.6l105.6-88c9.6-8 24-6.4 33.6 3.2 8 9.6 6.4 24-3.2 33.6l-97.6 80v324.8c0 57.6 46.4 104 104 104h480c57.6 0 104-46.4 104-104V435.2L472 150.4 384 222.4c-9.6 8-24 6.4-33.6-3.2-8-9.6-6.4-24 3.2-33.6l102.4-84.8c8-6.4 20.8-6.4 30.4 0l368 304c4.8 4.8 8 11.2 8 17.6v336c1.6 84.8-67.2 153.6-150.4 153.6z" p-id="69094"></path></svg>