<?xml version="1.0" standalone="no"?><!DOCTYPE svg PUBLIC "-//W3C//DTD SVG 1.1//EN" "http://www.w3.org/Graphics/SVG/1.1/DTD/svg11.dtd"><svg t="1670488797273" class="icon" viewBox="0 0 1024 1024" version="1.1" xmlns="http://www.w3.org/2000/svg" p-id="56204" xmlns:xlink="http://www.w3.org/1999/xlink" width="200" height="200"><path d="M800 929.024h-576a128 128 0 0 1-128-128v-192a128 128 0 0 1 128-128h64v64h-64a64 64 0 0 0-64 64v192a64 64 0 0 0 64 64h576a64 64 0 0 0 64-64v-192a64 64 0 0 0-64-64h-64v-64h64a128 128 0 0 1 128 128v192a128 128 0 0 1-128 128z m-115.584-583.872L545.024 209.088v428.096a32 32 0 1 1-64 0V209.088L341.696 345.152l-0.64 0.64a30.08 30.08 0 0 1-45.312-3.712 37.888 37.888 0 0 1 3.328-49.92l192.832-188.288a29.952 29.952 0 0 1 42.624 0l192.768 188.288a37.952 37.952 0 0 1 2.624 48 30.144 30.144 0 0 1-45.504 4.992z" p-id="56205"></path></svg>